<svg preserveAspectRatio="none" width="100%" height="100%" overflow="visible" style="display: block;" viewBox="0 0 61.0523 61.0523" fill="none" xmlns="http://www.w3.org/2000/svg">
<g id="Frame" filter="url(#filter0_d_0_165)">
<g clip-path="url(#clip0_0_165)">
<rect x="4.52614" y="2.28495" width="52" height="52" rx="26" fill="var(--fill-0, black)" fill-opacity="0.01" shape-rendering="crispEdges"/>
<g id="Ellipse 1659">
</g>
<path id="Vector" d="M26.3101 37.0738C25.5579 37.0738 24.8348 36.7821 24.3188 36.1986L19.2726 30.4921C18.2407 29.3251 18.4294 27.4346 19.6938 26.2735C20.9588 25.1065 22.8193 25.1065 23.8455 26.2735L27.0291 29.8736L37.4146 20.2927C38.6796 19.1257 40.5401 19.1257 41.5663 20.2927C42.5925 21.4597 42.4095 23.3502 41.1451 24.5113L28.4699 36.2044C27.8374 36.7879 27.056 37.0797 26.3038 37.0797L26.3101 37.0738Z" fill="var(--fill-0, white)"/>
</g>
</g>
<defs>
<filter id="filter0_d_0_165" x="0" y="0" width="61.0523" height="61.0523" filterUnits="userSpaceOnUse" color-interpolation-filters="sRGB">
<feFlood flood-opacity="0" result="BackgroundImageFix"/>
<feColorMatrix in="SourceAlpha" type="matrix" values="0 0 0 0 0 0 0 0 0 0 0 0 0 0 0 0 0 0 127 0" result="hardAlpha"/>
<feOffset dy="2.24119"/>
<feGaussianBlur stdDeviation="2.26307"/>
<feComposite in2="hardAlpha" operator="out"/>
<feColorMatrix type="matrix" values="0 0 0 0 0 0 0 0 0 0 0 0 0 0 0 0 0 0 0.5 0"/>
<feBlend mode="normal" in2="BackgroundImageFix" result="effect1_dropShadow_0_165"/>
<feBlend mode="normal" in="BackgroundImageFix" in2="effect1_dropShadow_0_165" result="BackgroundImageFix"/>
<feBlend mode="normal" in="SourceGraphic" in2="BackgroundImageFix" result="shape"/>
</filter>
<clipPath id="clip0_0_165">
<rect x="4.52614" y="2.28495" width="52" height="52" rx="26" fill="white"/>
</clipPath>
</defs>
</svg>
