<svg preserveAspectRatio="none" width="100%" height="100%" overflow="visible" style="display: block;" viewBox="0 0 16 16" fill="none" xmlns="http://www.w3.org/2000/svg">
<g id="x-circle-solid">
<path id="&#226;&#134;&#179; Icon Color" fill-rule="evenodd" clip-rule="evenodd" d="M8 2C4.68629 2 2 4.68629 2 8C2 11.3137 4.68629 14 8 14C11.3137 14 14 11.3137 14 8C14 4.68629 11.3137 2 8 2ZM10.0221 5.97794C10.2351 6.19096 10.2351 6.53632 10.0221 6.74933L8.77139 8L10.0221 9.25067C10.2351 9.46368 10.2351 9.80905 10.0221 10.0221C9.80905 10.2351 9.46368 10.2351 9.25067 10.0221L8 8.77139L6.74933 10.0221C6.53632 10.2351 6.19096 10.2351 5.97794 10.0221C5.76493 9.80905 5.76493 9.46368 5.97794 9.25067L7.22861 8L5.97794 6.74933C5.76493 6.53632 5.76493 6.19096 5.97794 5.97794C6.19096 5.76493 6.53632 5.76493 6.74933 5.97794L8 7.22861L9.25067 5.97794C9.46368 5.76493 9.80905 5.76493 10.0221 5.97794Z" fill="currentColor"/>
</g>
</svg>
